<?xml version="1.0" encoding="utf-8"?>
<!-- Generator: Adobe Illustrator 15.0.2, SVG Export Plug-In . SVG Version: 6.00 Build 0)  -->
<!DOCTYPE svg PUBLIC "-//W3C//DTD SVG 1.1//EN" "http://www.w3.org/Graphics/SVG/1.1/DTD/svg11.dtd">
<svg version="1.1" id="Layer_1" xmlns="http://www.w3.org/2000/svg" xmlns:xlink="http://www.w3.org/1999/xlink" x="0px" y="0px"
	 width="20px" height="20px" viewBox="0 0 20 20" style="enable-background:new 0 0 20 20;" xml:space="preserve">
<style type="text/css">
<![CDATA[
	.st0{fill:#EDFAFF;fill-opacity:0.2;}
	.st1{opacity:0.5;fill:#FFFFFF;}
	.st2{fill:#FFFFFF;}
]]>
</style>
<circle class="st0" cx="10" cy="10" r="10"/>
<path class="st1" d="M10,20C4.486,20,0,15.514,0,10C0,4.486,4.486,0,10,0c5.514,0,10,4.486,10,10C20,15.514,15.514,20,10,20z M10,1
	c-4.962,0-9,4.038-9,9c0,4.963,4.038,9,9,9c4.963,0,9-4.037,9-9C19,5.038,14.963,1,10,1z"/>
<path class="st2" d="M8.571,14.571c-0.256,0-0.512-0.098-0.707-0.293c-0.391-0.391-0.391-1.023,0-1.414L10.729,10L7.864,7.136
	c-0.391-0.391-0.391-1.023,0-1.414s1.023-0.391,1.414,0l3.571,3.571c0.391,0.391,0.391,1.023,0,1.414l-3.571,3.571
	C9.083,14.474,8.827,14.571,8.571,14.571z"/>
</svg>
