<svg width="10" height="10" viewBox="0 0 10 10" fill="none" xmlns="http://www.w3.org/2000/svg">
<path fill-rule="evenodd" clip-rule="evenodd" d="M1.12358 0.181202C0.855463 -0.0711424 0.433546 -0.0583571 0.181202 0.209759C-0.0711424 0.477875 -0.0583571 0.899791 0.209759 1.15214L3.94395 4.66667L0.209759 8.1812C-0.0583571 8.43355 -0.0711424 8.85546 0.181202 9.12358C0.433546 9.3917 0.855463 9.40448 1.12358 9.15214L4.91667 5.58217L8.70976 9.15214C8.97787 9.40448 9.39979 9.3917 9.65213 9.12358C9.90448 8.85546 9.89169 8.43355 9.62358 8.1812L5.88939 4.66667L9.62358 1.15214C9.89169 0.899791 9.90448 0.477875 9.65213 0.209759C9.39979 -0.0583571 8.97787 -0.0711424 8.70976 0.181202L4.91667 3.75117L1.12358 0.181202Z" fill="#5891D4"/>
</svg>
