<?xml version="1.0" encoding="utf-8"?>
<!-- Generator: Adobe Illustrator 15.0.2, SVG Export Plug-In . SVG Version: 6.00 Build 0)  -->
<!DOCTYPE svg PUBLIC "-//W3C//DTD SVG 1.1//EN" "http://www.w3.org/Graphics/SVG/1.1/DTD/svg11.dtd">
<svg version="1.1" id="Layer_1" xmlns="http://www.w3.org/2000/svg" xmlns:xlink="http://www.w3.org/1999/xlink" x="0px" y="0px"
	 width="36px" height="36px" viewBox="0 0 36 36" style="enable-background:new 0 0 36 36;" xml:space="preserve">
<style type="text/css">
<![CDATA[
	.st0{fill:#FFFFFF;}
	.st1{fill:none;stroke:#66798E;stroke-width:2;stroke-linecap:round;stroke-linejoin:round;}
]]>
</style>
<g>
	<circle class="st0" cx="18" cy="18" r="18"/>
</g>
<path class="st1" d="M25.367,12.842c-0.426-0.426-0.932-0.764-1.488-0.994c-0.556-0.23-1.152-0.349-1.754-0.349
	s-1.198,0.119-1.754,0.349c-0.557,0.23-1.063,0.568-1.488,0.994L18,13.725l-0.883-0.883c-0.86-0.86-2.026-1.343-3.242-1.343
	s-2.382,0.483-3.242,1.343s-1.343,2.026-1.343,3.242s0.483,2.382,1.343,3.242l0.883,0.884L18,26.691l6.483-6.482l0.884-0.884
	c0.426-0.426,0.764-0.931,0.994-1.487s0.349-1.152,0.349-1.754s-0.118-1.198-0.349-1.754C26.131,13.772,25.793,13.268,25.367,12.842
	z"/>
</svg>
