<?xml version="1.0" encoding="utf-8"?>
<!-- Generator: Adobe Illustrator 15.0.2, SVG Export Plug-In . SVG Version: 6.00 Build 0)  -->
<!DOCTYPE svg PUBLIC "-//W3C//DTD SVG 1.1//EN" "http://www.w3.org/Graphics/SVG/1.1/DTD/svg11.dtd">
<svg version="1.1" id="Layer_1" xmlns="http://www.w3.org/2000/svg" xmlns:xlink="http://www.w3.org/1999/xlink" x="0px" y="0px"
	 width="50px" height="50px" viewBox="0 0 50 50" style="enable-background:new 0 0 50 50;" xml:space="preserve">
<style type="text/css">
<![CDATA[
	.st0{fill:#F5F5F5;}
]]>
</style>
<g>
	<path class="st0" d="M25,0C11.193,0,0,11.193,0,25c0,13.807,11.193,25,25,25c13.807,0,25-11.193,25-25C50,11.193,38.807,0,25,0z
		 M38.985,13.767c-0.06,0.782-0.417,2.975-0.857,5.676c-0.17,1.039-0.352,2.152-0.533,3.29l-2.046,12.136
		c0,0-0.163,1.777-1.554,2.086c-1.391,0.31-3.681-1.082-4.091-1.391c-0.07-0.051-0.4-0.254-0.896-0.561
		c-1.782-1.1-5.702-3.52-7.367-4.851c-0.573-0.464-1.227-1.392,0.082-2.474c2.945-2.55,6.464-5.72,8.591-7.729
		c0.98-0.927,1.963-3.092-2.127-0.464L16.652,26.83c0,0-1.309,0.772-3.763,0.077c-2.454-0.696-5.317-1.624-5.317-1.624
		s-1.963-1.159,1.391-2.396l19.062-7.42c1.881-0.773,8.262-3.247,8.262-3.247S39.23,11.139,38.985,13.767z"/>
</g>
</svg>
