<svg width="109" height="25" viewBox="0 0 109 25" fill="none" xmlns="http://www.w3.org/2000/svg">
<path d="M33.0854 7.07685C32.4072 7.12347 31.7688 7.20455 31.1641 7.31806V19.03H33.9338V15.051H34.8031C36.651 15.051 38.0747 14.7348 39.0658 14.1004C40.0611 13.4659 40.5588 12.4321 40.5588 11.0051C40.5588 9.58829 40.0674 8.56668 39.0868 7.9444C38.102 7.32009 36.693 7.00793 34.8535 7.00793C34.3474 7.0059 33.7574 7.03023 33.0854 7.07685ZM36.1386 9.36937C36.4683 9.41802 36.7539 9.50923 36.9828 9.64099C37.2137 9.77274 37.3922 9.94503 37.5161 10.1639C37.6379 10.3808 37.703 10.6545 37.703 10.9869C37.703 11.67 37.4594 12.1423 36.9723 12.3916C36.4851 12.645 35.7627 12.7707 34.8031 12.7707H33.9338V9.33897C34.0766 9.32883 34.2445 9.31667 34.4419 9.30653C34.6372 9.2964 34.8346 9.28829 35.0383 9.28829C35.4394 9.28829 35.8047 9.31464 36.1386 9.36937ZM48.0574 10.1639C47.9146 10.1072 47.7424 10.0565 47.5408 10.018C47.3392 9.97949 47.1397 9.94301 46.9381 9.91463C46.7366 9.88828 46.535 9.86396 46.3355 9.84774C46.1318 9.8295 45.9617 9.82139 45.8189 9.82139C45.0273 9.82139 44.3049 9.89233 43.6624 10.0383C43.0177 10.1781 42.4571 10.3322 41.9825 10.4903V19.028H44.6304V12.1322C44.748 12.1017 44.9202 12.0693 45.1512 12.0389C45.3822 12.0105 45.5816 11.9963 45.7475 11.9963C46.1129 11.9963 46.4594 12.0288 46.7807 12.0936C47.0956 12.1545 47.3749 12.2153 47.6143 12.27L48.0574 10.1639Z" fill="#5E7A9B" fill-opacity="0.9"/>
<path d="M57.2586 12.5638C57.0318 11.9801 56.7169 11.4835 56.3158 11.074C55.9147 10.6585 55.4297 10.3402 54.8711 10.1112C54.3041 9.88417 53.6868 9.7666 53.0127 9.7666C52.3513 9.7666 51.7381 9.88417 51.1775 10.1112C50.6147 10.3402 50.1254 10.6585 49.7202 11.074C49.3107 11.4835 48.9915 11.9801 48.7605 12.5638C48.5275 13.1456 48.4141 13.7922 48.4141 14.5037C48.4141 15.2111 48.5274 15.8597 48.75 16.4455C48.9768 17.0354 49.2918 17.5381 49.695 17.9556C50.096 18.3752 50.579 18.6975 51.1439 18.9266C51.7066 19.1536 52.3303 19.2671 53.0169 19.2671C53.7162 19.2671 54.3461 19.1536 54.9068 18.9266C55.4696 18.6975 55.9546 18.3752 56.3557 17.9556C56.7589 17.5401 57.0675 17.0354 57.2775 16.4455C57.4917 15.8597 57.5988 15.2111 57.5988 14.5037C57.5946 13.7922 57.4812 13.1456 57.2586 12.5638ZM54.407 16.3786C54.0816 16.8408 53.6175 17.0739 53.0127 17.0739C52.4101 17.0739 51.9397 16.8408 51.61 16.3786C51.2783 15.9145 51.1145 15.2901 51.1145 14.5037C51.1145 13.7111 51.2804 13.0929 51.61 12.6409C51.9418 12.1889 52.4101 11.9659 53.0127 11.9659C53.6175 11.9659 54.0816 12.1909 54.407 12.6409C54.7325 13.0929 54.8942 13.7131 54.8942 14.5037C54.8942 15.2901 54.7325 15.9145 54.407 16.3786Z" fill="#5E7A9B" fill-opacity="0.9"/>
<path d="M59.8586 6.75034C59.1761 7.43546 58.8359 8.36382 58.8359 9.52934V19.0278H61.4839V12.134H64.7491V10.0097H61.4839V9.5638C61.4839 9.32258 61.5091 9.10164 61.5594 8.89489C61.6161 8.69017 61.7022 8.51179 61.8282 8.36382C61.9521 8.21788 62.1243 8.09626 62.3406 8.01113C62.5632 7.92599 62.8299 7.8814 63.1511 7.8814C63.3863 7.8814 63.6194 7.89964 63.8504 7.9341C64.0814 7.96856 64.2893 8.02531 64.4782 8.10437L64.9423 6.09765C64.7176 6.00846 64.4425 5.9213 64.1171 5.84022C63.7895 5.75914 63.3779 5.72266 62.8803 5.72266C61.5469 5.72266 60.5389 6.06319 59.8586 6.75034ZM68.9236 10.0097H66.2799V19.0298H68.9236V10.0097ZM68.7031 6.29832C68.3882 6.0267 68.0207 5.89495 67.5944 5.89495C67.1682 5.89495 66.7965 6.0267 66.4836 6.29832C66.1686 6.56791 66.0132 6.93277 66.0132 7.40505C66.0132 7.87734 66.1686 8.2422 66.4836 8.51179C66.7944 8.78138 67.1661 8.91516 67.5944 8.91516C68.0207 8.91516 68.3882 8.78138 68.7031 8.51179C69.016 8.2422 69.1714 7.87734 69.1714 7.40505C69.1714 6.93277 69.016 6.56588 68.7031 6.29832Z" fill="#5E7A9B" fill-opacity="0.9"/>
<path d="M71.2344 15.3406C71.2344 15.9264 71.289 16.4555 71.4045 16.9379C71.5137 17.4163 71.7152 17.8257 71.9987 18.1622C72.2843 18.5007 72.6623 18.7642 73.1368 18.9548C73.6051 19.1433 74.2078 19.2345 74.928 19.2345C75.495 19.2345 75.9758 19.1919 76.3664 19.0966C76.757 19.0075 77.1098 18.898 77.431 18.7683L77.0594 16.7818C76.8116 16.8751 76.5365 16.946 76.2341 16.9987C75.9317 17.0494 75.6399 17.0757 75.3543 17.0757C74.7642 17.0757 74.3695 16.9156 74.1721 16.5933C73.9768 16.2731 73.8802 15.8474 73.8802 15.3082V12.1319H77.0594V10.0076H73.8802V7.35228L71.2344 7.76376V15.3406ZM84.4676 16.7312V7.1435H81.6979V19.0257H89.9231V16.7291H84.4676V16.7312ZM93.7154 17.0149C93.4361 16.8589 93.2954 16.5832 93.2954 16.1818C93.2954 15.9771 93.3437 15.8068 93.4382 15.667C93.5327 15.5312 93.6629 15.4217 93.8288 15.3386C93.9947 15.2596 94.1858 15.2069 94.4041 15.1765C94.6246 15.1481 94.8598 15.1339 95.1076 15.1339C95.2861 15.1339 95.4793 15.1481 95.6914 15.1663C95.9034 15.1906 96.0651 15.2129 96.1722 15.2373V17.1751C96.0294 17.1974 95.8425 17.2136 95.6053 17.2237C95.368 17.2338 95.1202 17.242 94.8598 17.242C94.3726 17.246 93.9905 17.167 93.7154 17.0149ZM93.7343 9.80899C93.4277 9.83939 93.1421 9.87385 92.8692 9.91439C92.6004 9.95493 92.3442 9.99953 92.1153 10.0522C91.8822 10.1029 91.689 10.1516 91.5378 10.1982L91.8759 12.2556C92.1951 12.1421 92.5752 12.0508 93.0119 11.99C93.4487 11.9252 93.8918 11.8968 94.3411 11.8968C95.0152 11.8968 95.4898 12.0265 95.7627 12.292C96.0357 12.5556 96.1722 12.9022 96.1722 13.3359V13.5751C96.0063 13.5285 95.7921 13.4941 95.5234 13.4657C95.2588 13.4353 94.9522 13.4231 94.6099 13.4231C94.1018 13.4231 93.6062 13.4697 93.1337 13.5691C92.6613 13.6663 92.2413 13.8224 91.8738 14.0373C91.5063 14.2542 91.2124 14.5481 90.994 14.915C90.7735 15.2798 90.6664 15.7258 90.6664 16.2508C90.6664 16.8001 90.7588 17.2622 90.952 17.6392C91.141 18.0183 91.4139 18.3223 91.7688 18.5575C92.1258 18.7906 92.55 18.9608 93.0371 19.0642C93.5306 19.1656 94.0787 19.2162 94.6834 19.2162C95.6431 19.2162 96.4578 19.1615 97.1339 19.0561C97.8101 18.9467 98.3351 18.8514 98.7172 18.7683V13.4555C98.7172 12.8961 98.6521 12.3873 98.5219 11.9312C98.3897 11.4752 98.165 11.086 97.8542 10.7657C97.5392 10.4455 97.1234 10.1982 96.6006 10.0279C96.0798 9.85561 95.4289 9.77048 94.6498 9.77048C94.339 9.76845 94.0325 9.78467 93.7343 9.80899ZM105.592 16.3521C105.227 16.8325 104.681 17.0737 103.958 17.0737C103.721 17.0737 103.503 17.0636 103.301 17.0474C103.102 17.0291 102.936 17.0089 102.804 16.9866V12.3407C102.969 12.2373 103.188 12.1522 103.455 12.0833C103.721 12.0144 103.988 11.9799 104.261 11.9799C105.517 11.9799 106.142 12.8029 106.142 14.4467C106.142 15.2393 105.96 15.8717 105.592 16.3521ZM108.576 12.588C108.402 12.0123 108.141 11.5198 107.795 11.1063C107.453 10.6948 107.024 10.3786 106.516 10.1536C106.008 9.93264 105.422 9.81913 104.756 9.81913C104.391 9.81913 104.047 9.85358 103.727 9.92047C103.41 9.98939 103.1 10.0887 102.804 10.2124V5.72461L100.158 6.13609V18.7379C100.395 18.8068 100.668 18.8696 100.975 18.9345C101.281 18.9973 101.607 19.0521 101.943 19.0966C102.281 19.1433 102.625 19.1777 102.972 19.2102C103.32 19.2365 103.656 19.2527 103.975 19.2527C104.746 19.2527 105.433 19.1433 106.035 18.9203C106.638 18.6973 107.15 18.3791 107.562 17.9676C107.978 17.5561 108.295 17.0575 108.515 16.4778C108.736 15.892 108.843 15.2433 108.843 14.5217C108.843 13.8103 108.755 13.1657 108.576 12.588Z" fill="#5E7A9B" fill-opacity="0.9"/>
<path d="M4.08533 14.6897C4.90637 14.2762 5.31374 13.4918 5.31374 12.3587C5.31374 11.8033 5.20665 11.3492 5.00086 10.9905C4.78878 10.6297 4.4906 10.3418 4.10003 10.1229C3.71155 9.90399 3.23489 9.75197 2.67843 9.67089C2.11987 9.5817 1.50251 9.53711 0.824257 9.53711C0.708765 9.53711 0.599573 9.54522 0.488281 9.54724V15.3161C2.07577 15.312 3.27478 15.1032 4.08533 14.6897Z" fill="#5E7A9B" fill-opacity="0.9"/>
<path d="M13.4631 0.931641H0.490234V5.74979C0.498634 5.74979 0.511234 5.74777 0.519633 5.74777C3.61901 5.74777 5.99395 6.26667 7.65283 7.30449C9.30331 8.33826 10.1328 10.0328 10.1328 12.3862C10.1328 14.7577 9.29491 16.4705 7.61713 17.5266C5.95405 18.5745 3.57282 19.0975 0.490234 19.1036V24.0616H24.4516V18.9354H13.4631V0.931641Z" fill="#5E7A9B" fill-opacity="0.9"/>
<path d="M24.4533 0.928711H17.9375V15.2798H24.4533V0.928711Z" fill="#5E7A9B" fill-opacity="0.9"/>
</svg>
