<?xml version="1.0" encoding="utf-8"?>
<!-- Generator: Adobe Illustrator 15.0.2, SVG Export Plug-In . SVG Version: 6.00 Build 0)  -->
<!DOCTYPE svg PUBLIC "-//W3C//DTD SVG 1.1//EN" "http://www.w3.org/Graphics/SVG/1.1/DTD/svg11.dtd">
<svg version="1.1" id="Layer_1" xmlns="http://www.w3.org/2000/svg" xmlns:xlink="http://www.w3.org/1999/xlink" x="0px" y="0px"
	 width="50px" height="50px" viewBox="0 0 50 50" style="enable-background:new 0 0 50 50;" xml:space="preserve">
<style type="text/css">
<![CDATA[
	.st0{fill:#F5F5F5;}
]]>
</style>
<g>
	<path class="st0" d="M24.905,22.473c-1.061-0.619-2.12-1.236-3.183-1.856v8.68c2.484-1.45,4.939-2.883,7.44-4.341
		c-1.429-0.833-2.84-1.656-4.247-2.477L24.905,22.473z"/>
	<path class="st0" d="M25,0C11.193,0,0,11.193,0,25c0,13.807,11.193,25,25,25c13.807,0,25-11.193,25-25C50,11.193,38.807,0,25,0z
		 M38.821,30.193c-0.232,1.6-0.68,3.444-2.393,4.024c-1.929,0.653-3.995,0.693-6.015,0.733l-0.172,0.003
		c-0.691,0.014-1.382,0.03-2.072,0.046h-0.001c-2.295,0.053-4.59,0.105-6.887,0.071c-0.335-0.005-0.671-0.008-1.006-0.011
		c-1.09-0.01-2.18-0.021-3.267-0.09c-1.342-0.088-2.858-0.199-4.114-0.707c-2.354-0.948-2.483-3.769-2.571-5.934
		c-0.067-1.67-0.061-3.338-0.051-5.009c0.001-0.199,0-0.402,0-0.608v0c-0.002-1.717-0.004-3.634,0.721-5.18
		c0.904-1.927,2.903-2.209,4.845-2.364c1.583-0.125,3.169-0.16,4.756-0.194c3.088-0.068,6.179-0.136,9.267-0.019
		c1.524,0.057,3.048,0.16,4.564,0.33c1.197,0.136,2.458,0.357,3.273,1.336c0.951,1.144,1.111,2.782,1.222,4.212
		c0.027,0.338,0.045,0.675,0.056,1.013c0.028,0.811,0.022,1.624,0.017,2.436v0.001c-0.003,0.37-0.006,0.74-0.005,1.109
		c0,0.258,0.002,0.516,0.004,0.774C39.004,27.512,39.015,28.861,38.821,30.193z"/>
</g>
</svg>
