<svg width="59" height="50" viewBox="0 0 59 50" fill="none" xmlns="http://www.w3.org/2000/svg">
<path d="M3.61714 21.4824L38.7615 6.84108C42.2306 5.31594 53.9957 0.435483 53.9957 0.435483C53.9957 0.435483 59.4257 -1.69972 58.9732 3.48577C58.8224 5.62096 57.6157 13.0942 56.409 21.1774L52.6382 45.1221C52.6382 45.1221 52.3365 48.63 49.7723 49.24C47.2082 49.8501 42.9848 47.1048 42.2306 46.4948C41.6273 46.0372 30.9181 39.1741 26.9964 35.8188C25.9406 34.9037 24.7339 33.0735 27.1472 30.9383C32.5773 25.9053 39.0631 19.6523 42.9848 15.6869C44.7948 13.8567 46.6048 9.58633 39.0631 14.7718L17.7955 29.2607C17.7955 29.2607 15.3822 30.7858 10.8572 29.4132C6.33215 28.0405 1.05296 26.2104 1.05296 26.2104C1.05296 26.2104 -2.56705 23.9227 3.61714 21.4824Z" fill="white"/>
</svg>
