<?xml version="1.0" encoding="utf-8"?>
<!-- Generator: Adobe Illustrator 15.0.2, SVG Export Plug-In . SVG Version: 6.00 Build 0)  -->
<!DOCTYPE svg PUBLIC "-//W3C//DTD SVG 1.1//EN" "http://www.w3.org/Graphics/SVG/1.1/DTD/svg11.dtd">
<svg version="1.1" id="Layer_1" xmlns="http://www.w3.org/2000/svg" xmlns:xlink="http://www.w3.org/1999/xlink" x="0px" y="0px"
	 width="50px" height="50px" viewBox="0 0 50 50" style="enable-background:new 0 0 50 50;" xml:space="preserve">
<style type="text/css">
<![CDATA[
	.st0{fill:#F5F5F5;}
	.st1{clip-path:url(#SVGID_2_);}
]]>
</style>
<g>
	<g>
		<defs>
			<rect id="SVGID_1_" width="50" height="50"/>
		</defs>
		<clipPath id="SVGID_2_">
			<use xlink:href="#SVGID_1_"  style="overflow:visible;"/>
		</clipPath>
		<g class="st1">
			<path class="st0" d="M25,0C11.193,0,0,11.193,0,25c0,13.807,11.193,25,25,25c13.807,0,25-11.193,25-25C50,11.193,38.807,0,25,0z
				 M27.951,17.743c0-1.771-1.32-3.204-2.951-3.204c-1.63,0-2.95,1.433-2.95,3.204c0,1.77,1.32,3.204,2.95,3.204
				C26.631,20.947,27.951,19.513,27.951,17.743z M32.131,17.743c0,4.268-3.199,7.743-7.131,7.743c-3.93,0-7.131-3.475-7.131-7.743
				C17.869,13.475,21.07,10,25,10C28.932,10,32.131,13.475,32.131,17.743z M32.021,29.938c-1.271,0.869-2.672,1.5-4.142,1.856
				l3.99,4.334c0.819,0.892,0.819,2.324,0,3.203c-0.82,0.892-2.142,0.892-2.95,0L25,35.075l-3.93,4.245
				c-0.81,0.892-2.13,0.892-2.951,0c-0.82-0.879-0.82-2.313,0-3.203l3.991-4.332c-1.47-0.359-2.871-0.988-4.141-1.857
				c-0.97-0.662-1.26-2.063-0.65-3.128c0.62-1.054,1.9-1.368,2.88-0.706c2.92,1.988,6.681,1.998,9.601,0
				c0.979-0.662,2.271-0.348,2.882,0.717C33.291,27.875,33.001,29.275,32.021,29.938z"/>
		</g>
	</g>
</g>
</svg>
