<?xml version="1.0" encoding="utf-8"?>
<!-- Generator: Adobe Illustrator 15.0.2, SVG Export Plug-In . SVG Version: 6.00 Build 0)  -->
<!DOCTYPE svg PUBLIC "-//W3C//DTD SVG 1.1//EN" "http://www.w3.org/Graphics/SVG/1.1/DTD/svg11.dtd">
<svg version="1.1" id="Layer_1" xmlns="http://www.w3.org/2000/svg" xmlns:xlink="http://www.w3.org/1999/xlink" x="0px" y="0px"
	 width="158.71px" height="16.14px" viewBox="0 0 158.71 16.14" style="enable-background:new 0 0 158.71 16.14;"
	 xml:space="preserve">
<style type="text/css">
<![CDATA[
	.st0{fill:#FFFFFF;}
]]>
</style>
<path class="st0" d="M20.043,0H0v16.139l20.043-0.047v-5.029H5.026V3.015h15.017V0z"/>
<path class="st0" d="M40.163,6.384v9.708h3.028V0h-3.028L28.189,9.631V0h-5.087v16.092h5.087L40.163,6.384z"/>
<path class="st0" d="M51.229,13.076h10.067V9.568H51.229V13.076z M46.203,0h5.026h15.063v3.015H51.229v3.539h10.067h4.996v9.538
	h-4.996H51.229h-5.026v-3.016V9.568V6.554V3.015V0z"/>
<path class="st0" d="M69.29,0h3.028v9.631L84.337,0h5.058v16.092h-5.058l-0.03-9.708l-11.989,9.708H69.29V0z"/>
<path class="st0" d="M95.419,8.046h12.112V5.03H95.419V8.046z M92.406,0h3.013h12.112h4.964v11.063h-4.964H95.419v5.045h-3.013V5.03
	V0z"/>
<path class="st0" d="M130.571,5.03h-12.05v2.985h12.05V5.03z M115.508,0h3.014h12.05h5.026v16.107h-5.026v-5.045h-5.165
	l-6.132,5.045h-4.765l6.117-5.045h-2.121h-3.013V0H115.508z"/>
<path class="st0" d="M138.61,0h3.012v6.584h2.905l6.9-6.554h7.287l-8.578,8.046l8.563,8.015h-7.301L144.573,9.6h-2.951v6.492h-3.012
	V0z"/>
</svg>
