<?xml version="1.0" encoding="utf-8"?>
<!-- Generator: Adobe Illustrator 15.0.2, SVG Export Plug-In . SVG Version: 6.00 Build 0)  -->
<!DOCTYPE svg PUBLIC "-//W3C//DTD SVG 1.1//EN" "http://www.w3.org/Graphics/SVG/1.1/DTD/svg11.dtd">
<svg version="1.1" id="Layer_1" xmlns="http://www.w3.org/2000/svg" xmlns:xlink="http://www.w3.org/1999/xlink" x="0px" y="0px"
	 width="19px" height="19px" viewBox="0 0 19 19" style="enable-background:new 0 0 19 19;" xml:space="preserve">
<style type="text/css">
<![CDATA[
	.st0{fill:#66798E;}
]]>
</style>
<g>
	<g>
		<g>
			<path class="st0" d="M15.56,19.001c-0.08,0-0.161-0.004-0.242-0.012c-2.658-0.288-5.237-1.203-7.472-2.648
				c-2.069-1.313-3.864-3.104-5.184-5.177C1.212,8.93,0.295,6.342,0.012,3.689C-0.023,3.312,0.02,2.95,0.137,2.6
				c0.118-0.348,0.302-0.661,0.548-0.932c0.252-0.274,0.548-0.486,0.883-0.633c0.337-0.147,0.693-0.222,1.058-0.222h2.442
				c0.6-0.018,1.245,0.219,1.729,0.635c0.484,0.415,0.8,0.991,0.888,1.624c0.094,0.711,0.268,1.406,0.517,2.071
				c0.176,0.471,0.214,0.979,0.109,1.469C8.206,7.104,7.963,7.553,7.609,7.91l-0.48,0.479c0.906,1.378,2.087,2.558,3.468,3.461
				l0.479-0.477c0.358-0.355,0.807-0.598,1.3-0.704c0.502-0.103,1.008-0.064,1.475,0.109c0.664,0.247,1.36,0.42,2.067,0.514
				c0.646,0.089,1.229,0.41,1.646,0.904c0.413,0.488,0.634,1.107,0.621,1.746v2.428c0.003,0.356-0.07,0.715-0.219,1.056
				c-0.15,0.343-0.364,0.641-0.637,0.888c-0.264,0.244-0.58,0.431-0.932,0.55C16.121,18.955,15.841,19.001,15.56,19.001z
				 M5.084,2.813c-0.002,0-0.004,0-0.006,0H2.626c-0.088,0-0.174,0.018-0.256,0.054c-0.078,0.034-0.149,0.085-0.208,0.15
				C2.105,3.079,2.061,3.155,2.032,3.238C2.005,3.32,1.995,3.405,2.002,3.49c0.248,2.33,1.058,4.614,2.341,6.593
				c1.168,1.833,2.75,3.412,4.58,4.573c1.981,1.281,4.26,2.091,6.596,2.344c0.069,0.007,0.156-0.005,0.246-0.034
				c0.077-0.026,0.152-0.07,0.214-0.127c0.069-0.063,0.119-0.133,0.154-0.213c0.035-0.081,0.053-0.163,0.052-0.247v-2.447
				c0-0.008,0-0.017,0-0.024c0.004-0.153-0.049-0.302-0.148-0.42c-0.099-0.116-0.236-0.192-0.388-0.214
				c-0.85-0.112-1.691-0.321-2.498-0.621c-0.116-0.044-0.24-0.053-0.361-0.026c-0.111,0.023-0.22,0.082-0.304,0.165l-1.032,1.028
				c-0.318,0.318-0.809,0.382-1.199,0.162c-2.193-1.245-4.011-3.06-5.259-5.249C4.772,8.341,4.839,7.848,5.159,7.53l1.034-1.032
				c0.08-0.081,0.137-0.187,0.162-0.304c0.025-0.116,0.016-0.237-0.026-0.35C6.026,5.037,5.816,4.195,5.704,3.341
				C5.684,3.2,5.609,3.063,5.495,2.965C5.379,2.867,5.234,2.813,5.084,2.813z M14.743,8.458c-0.469,0-0.888-0.332-0.98-0.809
				c-0.117-0.6-0.407-1.145-0.841-1.576c-0.435-0.434-0.981-0.725-1.584-0.842c-0.542-0.105-0.896-0.63-0.79-1.172
				c0.105-0.542,0.63-0.896,1.173-0.791c0.993,0.193,1.897,0.674,2.613,1.389c0.717,0.713,1.198,1.616,1.392,2.61
				c0.105,0.542-0.248,1.067-0.79,1.172C14.871,8.452,14.807,8.458,14.743,8.458z M17.999,8.45c-0.503,0-0.936-0.377-0.993-0.888
				c-0.159-1.417-0.804-2.752-1.815-3.761c-1.011-1.008-2.351-1.649-3.771-1.807c-0.549-0.061-0.944-0.555-0.884-1.104
				c0.061-0.548,0.537-0.94,1.104-0.884c1.869,0.208,3.632,1.052,4.963,2.378c1.332,1.328,2.181,3.087,2.392,4.954
				c0.062,0.549-0.333,1.044-0.882,1.105C18.074,8.448,18.036,8.45,17.999,8.45z"/>
		</g>
	</g>
</g>
</svg>
