<?xml version="1.0" encoding="utf-8"?>
<!-- Generator: Adobe Illustrator 15.0.2, SVG Export Plug-In . SVG Version: 6.00 Build 0)  -->
<!DOCTYPE svg PUBLIC "-//W3C//DTD SVG 1.1//EN" "http://www.w3.org/Graphics/SVG/1.1/DTD/svg11.dtd">
<svg version="1.1" id="Layer_1" xmlns="http://www.w3.org/2000/svg" xmlns:xlink="http://www.w3.org/1999/xlink" x="0px" y="0px"
	 width="13.83px" height="15.64px" viewBox="0 0 13.83 15.64" style="enable-background:new 0 0 13.83 15.64;" xml:space="preserve"
	>
<style type="text/css">
<![CDATA[
	.st0{fill:#858585;}
]]>
</style>
<path class="st0" d="M13.149,2.385c-0.45-0.745-1.099-1.329-1.944-1.751S9.336,0,8.133,0h-5.94v7.67H0v2.138h2.192v1.149H0v2.138
	h2.192v2.546h2.696v-2.546h3.502v-2.138H4.889V9.808h3.244c1.189,0,2.205-0.193,3.051-0.58c0.852-0.387,1.504-0.942,1.955-1.665
	c0.458-0.73,0.688-1.608,0.688-2.632C13.826,3.971,13.601,3.123,13.149,2.385z M10.808,6.381C10.6,6.789,10.274,7.108,9.83,7.337
	C9.386,7.559,8.803,7.67,8.08,7.67H4.889V2.148h3.244c0.701,0,1.271,0.136,1.708,0.408c0.437,0.265,0.759,0.609,0.967,1.031
	s0.312,0.877,0.312,1.364C11.119,5.497,11.016,5.973,10.808,6.381z"/>
</svg>
