<?xml version="1.0" encoding="utf-8"?>
<!-- Generator: Adobe Illustrator 15.0.2, SVG Export Plug-In . SVG Version: 6.00 Build 0)  -->
<!DOCTYPE svg PUBLIC "-//W3C//DTD SVG 1.1//EN" "http://www.w3.org/Graphics/SVG/1.1/DTD/svg11.dtd">
<svg version="1.1" id="Layer_1" xmlns="http://www.w3.org/2000/svg" xmlns:xlink="http://www.w3.org/1999/xlink" x="0px" y="0px"
	 width="10.05px" height="11.38px" viewBox="0 0 10.05 11.38" style="enable-background:new 0 0 10.05 11.38;" xml:space="preserve"
	>
<style type="text/css">
<![CDATA[
	.st0{fill:#222222;}
]]>
</style>
<path class="st0" d="M9.563,1.734C9.234,1.193,8.764,0.768,8.148,0.461S6.789,0,5.914,0h-4.32v5.578H0v1.555h1.594v0.836H0v1.555
	h1.594v1.852h1.961V9.523h2.547V7.969H3.555V7.133h2.359c0.865,0,1.604-0.141,2.219-0.422C8.752,6.43,9.227,6.026,9.555,5.5
	c0.334-0.531,0.5-1.169,0.5-1.914C10.055,2.888,9.891,2.271,9.563,1.734z M7.859,4.641c-0.15,0.297-0.389,0.529-0.711,0.695
	C6.826,5.498,6.4,5.578,5.875,5.578h-2.32V1.563h2.359c0.51,0,0.924,0.099,1.242,0.297c0.318,0.193,0.553,0.443,0.703,0.75
	s0.227,0.638,0.227,0.992C8.086,3.998,8.01,4.344,7.859,4.641z"/>
</svg>
