<?xml version="1.0" encoding="utf-8"?>
<!-- Generator: Adobe Illustrator 15.0.2, SVG Export Plug-In . SVG Version: 6.00 Build 0)  -->
<!DOCTYPE svg PUBLIC "-//W3C//DTD SVG 1.1//EN" "http://www.w3.org/Graphics/SVG/1.1/DTD/svg11.dtd">
<svg version="1.1" id="Layer_1" xmlns="http://www.w3.org/2000/svg" xmlns:xlink="http://www.w3.org/1999/xlink" x="0px" y="0px"
	 width="12.5px" height="14.75px" viewBox="0 0 12.5 14.75" style="enable-background:new 0 0 12.5 14.75;" xml:space="preserve">
<style type="text/css">
<![CDATA[
	.st0{fill:#66798E;}
]]>
</style>
<path class="st0" d="M6.25,14.75C2.804,14.75,0,11.946,0,8.5s2.804-6.25,6.25-6.25S12.5,5.054,12.5,8.5S9.696,14.75,6.25,14.75z
	 M6.25,4.25C3.907,4.25,2,6.157,2,8.5c0,2.344,1.907,4.25,4.25,4.25c2.344,0,4.25-1.906,4.25-4.25C10.5,6.157,8.594,4.25,6.25,4.25z
	"/>
<path class="st0" d="M8.5,10.25c-0.129,0-0.259-0.024-0.385-0.077l-2.25-0.938C5.493,9.08,5.25,8.717,5.25,8.313V5.5
	c0-0.552,0.448-1,1-1c0.553,0,1,0.448,1,1v2.146l1.635,0.681c0.51,0.212,0.751,0.798,0.538,1.308
	C9.263,10.019,8.892,10.25,8.5,10.25z"/>
<path class="st0" d="M7.75,2h-3c-0.552,0-1-0.448-1-1s0.448-1,1-1h3c0.553,0,1,0.448,1,1S8.303,2,7.75,2z"/>
</svg>
